<?xml version="1.0" encoding="UTF-8" standalone="no"?>
<!-- Created with Inkscape (http://www.inkscape.org/) -->

<svg
   xmlns:dc="http://purl.org/dc/elements/1.1/"
   xmlns:cc="http://creativecommons.org/ns#"
   xmlns:rdf="http://www.w3.org/1999/02/22-rdf-syntax-ns#"
   xmlns:svg="http://www.w3.org/2000/svg"
   xmlns="http://www.w3.org/2000/svg"
   xmlns:xlink="http://www.w3.org/1999/xlink"
   xmlns:sodipodi="http://sodipodi.sourceforge.net/DTD/sodipodi-0.dtd"
   xmlns:inkscape="http://www.inkscape.org/namespaces/inkscape"
   width="192"
   height="192"
   viewBox="0 0 192 192"
   id="svg4644"
   version="1.1"
   inkscape:version="0.91 r13725"
   sodipodi:docname="ctrlPyME_logo.svg"
   inkscape:export-filename="/home/djrm/Documents/web2py/applications/ctrlpyme4/static/images/launcher-icon-4x.png"
   inkscape:export-xdpi="90"
   inkscape:export-ydpi="90">
  <defs
     id="defs4646">
    <linearGradient
       id="linearGradient4367"
       inkscape:collect="always">
      <stop
         id="stop4369"
         offset="0"
         style="stop-color:#52ffa8;stop-opacity:0.14509805" />
      <stop
         id="stop4371"
         offset="1"
         style="stop-color:#52d2c1;stop-opacity:0" />
    </linearGradient>
    <linearGradient
       inkscape:collect="always"
       id="linearGradient4353">
      <stop
         style="stop-color:#ffffff;stop-opacity:0.10555556"
         offset="0"
         id="stop4355" />
      <stop
         style="stop-color:#d25285;stop-opacity:0"
         offset="1"
         id="stop4357" />
    </linearGradient>
    <radialGradient
       inkscape:collect="always"
       xlink:href="#linearGradient4353"
       id="radialGradient4361"
       cx="12.060193"
       cy="887.25348"
       fx="12.060193"
       fy="887.25348"
       r="76"
       gradientTransform="matrix(2.1337577,2.0942568,-1.3793217,1.4050415,1195.2461,-412.5631)"
       gradientUnits="userSpaceOnUse" />
    <radialGradient
       inkscape:collect="always"
       xlink:href="#linearGradient4367"
       id="radialGradient4365"
       gradientUnits="userSpaceOnUse"
       gradientTransform="matrix(-2.1337577,-2.0942568,1.3793217,-1.4050415,-1003.2461,2325.2875)"
       cx="16.909828"
       cy="887.32227"
       fx="16.909828"
       fy="887.32227"
       r="76" />
  </defs>
  <sodipodi:namedview
     id="base"
     pagecolor="#ffffff"
     bordercolor="#666666"
     borderopacity="1.0"
     inkscape:pageopacity="0.0"
     inkscape:pageshadow="2"
     inkscape:zoom="2"
     inkscape:cx="162.11694"
     inkscape:cy="109.63379"
     inkscape:document-units="px"
     inkscape:current-layer="layer1"
     showgrid="false"
     units="px"
     inkscape:snap-bbox="false"
     inkscape:object-paths="true"
     inkscape:snap-intersection-paths="true"
     inkscape:object-nodes="true"
     inkscape:snap-smooth-nodes="true"
     inkscape:snap-midpoints="true"
     inkscape:snap-page="true"
     inkscape:snap-center="true"
     inkscape:snap-object-midpoints="true"
     inkscape:window-width="1920"
     inkscape:window-height="1016"
     inkscape:window-x="0"
     inkscape:window-y="27"
     inkscape:window-maximized="1"
     inkscape:snap-nodes="false">
    <inkscape:grid
       type="xygrid"
       id="grid5192" />
  </sodipodi:namedview>
  <metadata
     id="metadata4649">
    <rdf:RDF>
      <cc:Work
         rdf:about="">
        <dc:format>image/svg+xml</dc:format>
        <dc:type
           rdf:resource="http://purl.org/dc/dcmitype/StillImage" />
        <dc:title />
      </cc:Work>
    </rdf:RDF>
  </metadata>
  <g
     inkscape:label="Layer 1"
     inkscape:groupmode="layer"
     id="layer1"
     transform="translate(0,-860.36216)">
    <path
       id="path4391"
       d="m 159.99999,1032.3623 a 12,12 0 0 0 12,-12 l 0,-128.00015 a 12,12 0 0 0 -12,-12 l -127.999975,0 a 12,12 0 0 0 -12,12 l 0,128.00015 a 12,12 0 0 0 12,12 l 127.999975,0 z"
       style="fill:#5c78d1;fill-opacity:1;stroke:#334f9c;stroke-width:2;stroke-linecap:round;stroke-linejoin:round;stroke-miterlimit:4;stroke-dasharray:none;stroke-opacity:1"
       inkscape:connector-curvature="0" />
    <path
       inkscape:connector-curvature="0"
       style="fill:#5270d2;fill-opacity:1;stroke:none;stroke-width:3.477;stroke-linecap:round;stroke-linejoin:round;stroke-miterlimit:4;stroke-dasharray:none;stroke-opacity:1"
       d="m 32,880.36216 a 12,12 0 0 0 -12,12 l 0,128.00014 a 12,12 0 0 0 12,12 l 128,0 a 12,12 0 0 0 12,-12 l 0,-128.00014 a 12,12 0 0 0 -12,-12 l -128,0 z"
       id="rect4386" />
    <path
       style="fill:#6681d7;fill-opacity:1;stroke:none;stroke-width:3.477;stroke-linecap:round;stroke-linejoin:round;stroke-miterlimit:4;stroke-dasharray:none;stroke-opacity:1"
       d="M 32 20 C 28.68629 20 25.687196 21.342092 23.515625 23.513672 C 21.344046 25.685242 20 28.68629 20 32 L 20 160 C 20 163.3137 21.344044 166.31287 23.515625 168.48438 L 32 160 L 35.515625 156.48438 C 33.344054 154.31287 32 151.3137 32 148 L 32 44 C 32 40.68629 33.344055 37.685242 35.515625 35.513672 C 37.687195 33.342102 40.68629 32 44 32 L 148 32 C 151.31371 32 154.3128 33.344055 156.48438 35.515625 L 160 32 L 168.48438 23.515625 C 166.3128 21.344045 163.31371 20 160 20 L 32 20 z "
       id="path4431"
       transform="translate(0,860.36216)" />
    <path
       inkscape:connector-curvature="0"
       style="fill:#3e5fcc;fill-opacity:1;stroke:none;stroke-width:3.477;stroke-linecap:round;stroke-linejoin:round;stroke-miterlimit:4;stroke-dasharray:none;stroke-opacity:1"
       d="m 156.48437,895.87778 c 2.17157,2.17157 3.51563,5.17067 3.51563,8.48437 l 0,104.00005 c 0,3.3137 -1.34211,6.3129 -3.51368,8.4844 -2.17157,2.1716 -5.17261,3.5156 -8.48632,3.5156 l -104.000003,0 c -3.31371,0 -6.31281,-1.344 -8.48438,-3.5156 l -3.51562,3.5156 -8.48438,8.4843 c 2.17157,2.1716 5.17067,3.5157 8.48438,3.5157 l 128.000003,0 c 3.31371,0 6.31475,-1.3441 8.48632,-3.5157 2.17158,-2.1715 3.51368,-5.1706 3.51368,-8.4843 l 0,-128.00005 c 0,-3.31371 -1.34405,-6.3128 -3.51563,-8.48437 z"
       id="rect4410"
       sodipodi:nodetypes="csscsscccsscsscc" />
    <path
       id="path4351"
       d="m 32,880.36216 a 12,12 0 0 0 -12,12 l 0,128.00014 a 12,12 0 0 0 12,12 l 128,0 a 12,12 0 0 0 12,-12 l 0,-128.00014 a 12,12 0 0 0 -12,-12 l -128,0 z"
       style="fill:url(#radialGradient4361);fill-opacity:1;stroke:none;stroke-width:3.477;stroke-linecap:round;stroke-linejoin:round;stroke-miterlimit:4;stroke-dasharray:none;stroke-opacity:1"
       inkscape:connector-curvature="0" />
    <path
       inkscape:connector-curvature="0"
       style="fill:url(#radialGradient4365);fill-opacity:1;stroke:none;stroke-width:3.477;stroke-linecap:round;stroke-linejoin:round;stroke-miterlimit:4;stroke-dasharray:none;stroke-opacity:1"
       d="m 159.99999,1032.3623 a 12,12 0 0 0 12,-12 l 0,-128.00015 a 12,12 0 0 0 -12,-12 l -127.999975,0 a 12,12 0 0 0 -12,12 l 0,128.00015 a 12,12 0 0 0 12,12 l 127.999975,0 z"
       id="path4363" />
    <g
       transform="matrix(1.3004851,0,0,1.3004851,768.25531,-403.39841)"
       style="font-style:normal;font-variant:normal;font-weight:normal;font-stretch:normal;font-size:30.26419067px;line-height:125%;font-family:'Source Han Sans CN';-inkscape-font-specification:'Source Han Sans CN';letter-spacing:0px;word-spacing:0px;fill:#f9fdff;fill-opacity:1;stroke:none;stroke-width:0.76894383;stroke-linecap:butt;stroke-linejoin:miter;stroke-opacity:1;stroke-miterlimit:4;stroke-dasharray:none"
       id="flowRoot4441">
      <path
         d="m -549.99116,1078.4828 2.81457,0 0,-8.8069 3.66197,0 c 4.84227,0 8.17133,-2.179 8.17133,-6.87 0,-4.8423 -3.32906,-6.5068 -8.32265,-6.5068 l -6.32522,0 0,22.1837 z m 2.81457,-11.0767 0,-8.8372 3.17774,0 c 3.90408,0 5.87125,1.029 5.87125,4.237 0,3.1777 -1.84611,4.6002 -5.75019,4.6002 l -3.2988,0 z"
         id="path5307"
         inkscape:connector-curvature="0"
         style="fill:#f9fdff;fill-opacity:1;stroke:none;stroke-opacity:1;stroke-width:0.76894383;stroke-miterlimit:4;stroke-dasharray:none" />
      <path
         d="m -530.80934,1085.5646 c 3.26854,0 4.96333,-2.4817 6.11337,-5.72 l 6.20416,-17.7953 -2.69351,0 -2.93563,9.1398 c -0.45396,1.4527 -0.93819,3.1172 -1.39215,4.6001 l -0.15132,0 c -0.5145,-1.4829 -1.08952,-3.1777 -1.57374,-4.6001 l -3.35933,-9.1398 -2.8751,0 6.5976,16.4637 -0.36317,1.2409 c -0.66581,2.0277 -1.84612,3.5409 -3.7225,3.5409 -0.4237,0 -0.90792,-0.1514 -1.24083,-0.2724 l -0.54476,2.2093 c 0.5145,0.2118 1.15004,0.3329 1.93691,0.3329 z"
         id="path5309"
         inkscape:connector-curvature="0"
         style="fill:#f9fdff;fill-opacity:1;stroke:none;stroke-opacity:1;stroke-width:0.76894383;stroke-miterlimit:4;stroke-dasharray:none" />
      <path
         d="m -515.0573,1078.4828 2.54219,0 0,-12.2873 c 0,-1.9066 -0.21185,-4.6002 -0.3329,-6.5371 l 0.12105,0 1.75533,5.0542 4.20672,11.5306 1.87638,0 4.20672,-11.5306 1.75533,-5.0542 0.12105,0 c -0.15132,1.9369 -0.36317,4.6305 -0.36317,6.5371 l 0,12.2873 2.63299,0 0,-22.1837 -3.38959,0 -4.23699,11.8636 c -0.51449,1.5434 -0.99872,3.0869 -1.51321,4.6304 l -0.15132,0 c -0.54476,-1.5435 -1.05925,-3.087 -1.57374,-4.6304 l -4.26725,-11.8636 -3.38959,0 0,22.1837 z"
         id="path5311"
         inkscape:connector-curvature="0"
         style="fill:#f9fdff;fill-opacity:1;stroke:none;stroke-opacity:1;stroke-width:0.76894383;stroke-miterlimit:4;stroke-dasharray:none" />
      <path
         d="m -490.46765,1078.4828 13.13466,0 0,-2.3909 -10.32009,0 0,-8.0806 8.41345,0 0,-2.3908 -8.41345,0 0,-6.9608 9.98719,0 0,-2.3606 -12.80176,0 0,22.1837 z"
         id="path5313"
         inkscape:connector-curvature="0"
         style="fill:#f9fdff;fill-opacity:1;stroke:none;stroke-opacity:1;stroke-width:0.76894383;stroke-miterlimit:4;stroke-dasharray:none" />
    </g>
    <g
       transform="matrix(1.3004851,0,0,1.3004851,328.28783,-78.405521)"
       style="font-style:normal;font-variant:normal;font-weight:normal;font-stretch:normal;font-size:30.26419067px;line-height:125%;font-family:'Source Han Sans CN';-inkscape-font-specification:'Source Han Sans CN';letter-spacing:0px;word-spacing:0px;fill:#f9fdff;fill-opacity:1;stroke:none;stroke-width:0.76894383;stroke-linecap:butt;stroke-linejoin:miter;stroke-opacity:1;stroke-miterlimit:4;stroke-dasharray:none"
       id="flowRoot4451">
      <path
         d="m -175.5126,789.6633 c 1.96718,0 3.84356,-0.7566 5.29624,-2.08823 l -1.18031,-1.84611 c -1.02898,0.93819 -2.3606,1.63426 -3.87381,1.63426 -3.02642,0 -5.08439,-2.51192 -5.08439,-6.29495 0,-3.78302 2.17903,-6.35548 5.14492,-6.35548 1.33162,0 2.33034,0.60529 3.29879,1.48295 l 1.42242,-1.84612 c -1.1803,-1.02898 -2.66325,-1.93691 -4.81201,-1.93691 -4.20672,0 -7.92921,3.17774 -7.92921,8.65556 0,5.44756 3.35932,8.59503 7.71736,8.59503 z"
         id="path5298"
         inkscape:connector-curvature="0"
         style="fill:#f9fdff;fill-opacity:1;stroke:none;stroke-opacity:1;stroke-width:0.76894383;stroke-miterlimit:4;stroke-dasharray:none" />
      <path
         d="m -161.74097,789.6633 c 0.99872,0 2.08823,-0.30264 3.02642,-0.60528 l -0.54476,-2.05797 c -0.54475,0.21185 -1.30136,0.4237 -1.87638,0.4237 -1.90664,0 -2.54219,-1.15004 -2.54219,-3.17774 l 0,-9.17005 4.44884,0 0,-2.23955 -4.44884,0 0,-4.60015 -2.30008,0 -0.3329,4.60015 -2.57246,0.15132 0,2.08823 2.4514,0 0,9.10952 c 0,3.2988 1.1803,5.47782 4.69095,5.47782 z"
         id="path5300"
         inkscape:connector-curvature="0"
         style="fill:#f9fdff;fill-opacity:1;stroke:none;stroke-opacity:1;stroke-width:0.76894383;stroke-miterlimit:4;stroke-dasharray:none" />
      <path
         d="m -155.50797,789.26987 2.75405,0 0,-10.5622 c 1.08951,-2.81457 2.7843,-3.78303 4.14619,-3.78303 0.66581,0 1.05925,0.0605 1.604,0.27238 l 0.51449,-2.42114 c -0.51449,-0.27237 -1.02898,-0.36317 -1.75532,-0.36317 -1.84611,0 -3.51065,1.33163 -4.66068,3.41986 l -0.0908,0 -0.24211,-2.99616 -2.26982,0 0,16.43346 z"
         id="path5302"
         inkscape:connector-curvature="0"
         style="fill:#f9fdff;fill-opacity:1;stroke:none;stroke-opacity:1;stroke-width:0.76894383;stroke-miterlimit:4;stroke-dasharray:none" />
      <path
         d="m -140.83976,789.6633 c 0.72634,0 1.21057,-0.0908 1.604,-0.24211 l -0.39343,-2.11849 c -0.30265,0.0605 -0.4237,0.0605 -0.57502,0.0605 -0.4237,0 -0.78687,-0.3329 -0.78687,-1.1803 l 0,-21.00335 -2.75404,0 0,20.82177 c 0,2.33034 0.84739,3.66196 2.90536,3.66196 z"
         id="path5304"
         inkscape:connector-curvature="0"
         style="fill:#f9fdff;fill-opacity:1;stroke:none;stroke-opacity:1;stroke-width:0.76894383;stroke-miterlimit:4;stroke-dasharray:none" />
    </g>
  </g>
</svg>
