<?xml version="1.0" encoding="UTF-8" standalone="no"?>
<!-- Created with Inkscape (http://www.inkscape.org/) -->

<svg
   xmlns:dc="http://purl.org/dc/elements/1.1/"
   xmlns:cc="http://creativecommons.org/ns#"
   xmlns:rdf="http://www.w3.org/1999/02/22-rdf-syntax-ns#"
   xmlns:svg="http://www.w3.org/2000/svg"
   xmlns="http://www.w3.org/2000/svg"
   xmlns:xlink="http://www.w3.org/1999/xlink"
   xmlns:sodipodi="http://sodipodi.sourceforge.net/DTD/sodipodi-0.dtd"
   xmlns:inkscape="http://www.inkscape.org/namespaces/inkscape"
   width="192"
   height="192"
   viewBox="0 0 192 192"
   id="svg4644"
   version="1.1"
   inkscape:version="0.91 r13725"
   sodipodi:docname="ctrlPyME_help_logo.svg"
   inkscape:export-filename="/home/djrm/Documents/web2py/applications/ctrlpyme4/static/images/apple-launcher-help-icon-4x.png"
   inkscape:export-xdpi="90"
   inkscape:export-ydpi="90">
  <defs
     id="defs4646">
    <linearGradient
       id="linearGradient4367"
       inkscape:collect="always">
      <stop
         id="stop4369"
         offset="0"
         style="stop-color:#52ffa8;stop-opacity:0.14509805" />
      <stop
         id="stop4371"
         offset="1"
         style="stop-color:#52d2c1;stop-opacity:0" />
    </linearGradient>
    <linearGradient
       inkscape:collect="always"
       id="linearGradient4353">
      <stop
         style="stop-color:#ffffff;stop-opacity:0.10555556"
         offset="0"
         id="stop4355" />
      <stop
         style="stop-color:#d25285;stop-opacity:0"
         offset="1"
         id="stop4357" />
    </linearGradient>
    <radialGradient
       inkscape:collect="always"
       xlink:href="#linearGradient4353"
       id="radialGradient4361"
       cx="12.060193"
       cy="887.25348"
       fx="12.060193"
       fy="887.25348"
       r="76"
       gradientTransform="matrix(2.1337577,2.0942568,-1.3793217,1.4050415,1195.2461,-412.5631)"
       gradientUnits="userSpaceOnUse" />
    <radialGradient
       inkscape:collect="always"
       xlink:href="#linearGradient4367"
       id="radialGradient4365"
       gradientUnits="userSpaceOnUse"
       gradientTransform="matrix(-2.1337577,-2.0942568,1.3793217,-1.4050415,-1003.2461,2325.2875)"
       cx="16.909828"
       cy="887.32227"
       fx="16.909828"
       fy="887.32227"
       r="76" />
  </defs>
  <sodipodi:namedview
     id="base"
     pagecolor="#ffffff"
     bordercolor="#666666"
     borderopacity="1.0"
     inkscape:pageopacity="0.0"
     inkscape:pageshadow="2"
     inkscape:zoom="2.8284271"
     inkscape:cx="40.211003"
     inkscape:cy="106.85369"
     inkscape:document-units="px"
     inkscape:current-layer="layer1"
     showgrid="true"
     units="px"
     inkscape:snap-bbox="false"
     inkscape:object-paths="true"
     inkscape:snap-intersection-paths="true"
     inkscape:object-nodes="true"
     inkscape:snap-smooth-nodes="true"
     inkscape:snap-midpoints="true"
     inkscape:snap-page="true"
     inkscape:snap-center="true"
     inkscape:snap-object-midpoints="true"
     inkscape:window-width="1920"
     inkscape:window-height="1016"
     inkscape:window-x="0"
     inkscape:window-y="27"
     inkscape:window-maximized="1"
     inkscape:snap-nodes="false">
    <inkscape:grid
       type="xygrid"
       id="grid5192" />
  </sodipodi:namedview>
  <metadata
     id="metadata4649">
    <rdf:RDF>
      <cc:Work
         rdf:about="">
        <dc:format>image/svg+xml</dc:format>
        <dc:type
           rdf:resource="http://purl.org/dc/dcmitype/StillImage" />
        <dc:title />
      </cc:Work>
    </rdf:RDF>
  </metadata>
  <g
     inkscape:label="Layer 1"
     inkscape:groupmode="layer"
     id="layer1"
     transform="translate(0,-860.36216)">
    <path
       id="path4391"
       d="m 159.99999,1032.3623 a 12,12 0 0 0 12,-12 l 0,-128.00015 a 12,12 0 0 0 -12,-12 l -127.999975,0 a 12,12 0 0 0 -12,12 l 0,128.00015 a 12,12 0 0 0 12,12 l 127.999975,0 z"
       style="fill:#5c78d1;fill-opacity:1;stroke:#334f9c;stroke-width:2;stroke-linecap:round;stroke-linejoin:round;stroke-miterlimit:4;stroke-dasharray:none;stroke-opacity:1"
       inkscape:connector-curvature="0" />
    <path
       inkscape:connector-curvature="0"
       style="fill:#5270d2;fill-opacity:1;stroke:none;stroke-width:3.477;stroke-linecap:round;stroke-linejoin:round;stroke-miterlimit:4;stroke-dasharray:none;stroke-opacity:1"
       d="m 32,880.36216 a 12,12 0 0 0 -12,12 l 0,128.00014 a 12,12 0 0 0 12,12 l 128,0 a 12,12 0 0 0 12,-12 l 0,-128.00014 a 12,12 0 0 0 -12,-12 l -128,0 z"
       id="rect4386" />
    <path
       style="fill:#6681d7;fill-opacity:1;stroke:none;stroke-width:3.477;stroke-linecap:round;stroke-linejoin:round;stroke-miterlimit:4;stroke-dasharray:none;stroke-opacity:1"
       d="M 32 20 C 28.68629 20 25.687196 21.342092 23.515625 23.513672 C 21.344046 25.685242 20 28.68629 20 32 L 20 160 C 20 163.3137 21.344044 166.31287 23.515625 168.48438 L 32 160 L 35.515625 156.48438 C 33.344054 154.31287 32 151.3137 32 148 L 32 44 C 32 40.68629 33.344055 37.685242 35.515625 35.513672 C 37.687195 33.342102 40.68629 32 44 32 L 148 32 C 151.31371 32 154.3128 33.344055 156.48438 35.515625 L 160 32 L 168.48438 23.515625 C 166.3128 21.344045 163.31371 20 160 20 L 32 20 z "
       id="path4431"
       transform="translate(0,860.36216)" />
    <path
       inkscape:connector-curvature="0"
       style="fill:#3e5fcc;fill-opacity:1;stroke:none;stroke-width:3.477;stroke-linecap:round;stroke-linejoin:round;stroke-miterlimit:4;stroke-dasharray:none;stroke-opacity:1"
       d="m 156.48437,895.87778 c 2.17157,2.17157 3.51563,5.17067 3.51563,8.48437 l 0,104.00005 c 0,3.3137 -1.34211,6.3129 -3.51368,8.4844 -2.17157,2.1716 -5.17261,3.5156 -8.48632,3.5156 l -104.000003,0 c -3.31371,0 -6.31281,-1.344 -8.48438,-3.5156 l -3.51562,3.5156 -8.48438,8.4843 c 2.17157,2.1716 5.17067,3.5157 8.48438,3.5157 l 128.000003,0 c 3.31371,0 6.31475,-1.3441 8.48632,-3.5157 2.17158,-2.1715 3.51368,-5.1706 3.51368,-8.4843 l 0,-128.00005 c 0,-3.31371 -1.34405,-6.3128 -3.51563,-8.48437 z"
       id="rect4410"
       sodipodi:nodetypes="csscsscccsscsscc" />
    <path
       id="path4351"
       d="m 32,880.36216 a 12,12 0 0 0 -12,12 l 0,128.00014 a 12,12 0 0 0 12,12 l 128,0 a 12,12 0 0 0 12,-12 l 0,-128.00014 a 12,12 0 0 0 -12,-12 l -128,0 z"
       style="fill:url(#radialGradient4361);fill-opacity:1;stroke:none;stroke-width:3.477;stroke-linecap:round;stroke-linejoin:round;stroke-miterlimit:4;stroke-dasharray:none;stroke-opacity:1"
       inkscape:connector-curvature="0" />
    <path
       inkscape:connector-curvature="0"
       style="fill:url(#radialGradient4365);fill-opacity:1;stroke:none;stroke-width:3.477;stroke-linecap:round;stroke-linejoin:round;stroke-miterlimit:4;stroke-dasharray:none;stroke-opacity:1"
       d="m 159.99999,1032.3623 a 12,12 0 0 0 12,-12 l 0,-128.00015 a 12,12 0 0 0 -12,-12 l -127.999975,0 a 12,12 0 0 0 -12,12 l 0,128.00015 a 12,12 0 0 0 12,12 l 127.999975,0 z"
       id="path4363" />
    <path
       style="font-style:normal;font-variant:normal;font-weight:normal;font-stretch:normal;font-size:medium;line-height:125%;font-family:'Source Han Sans CN';-inkscape-font-specification:'Source Han Sans CN';letter-spacing:0px;word-spacing:0px;fill:#f9fdff;fill-opacity:1;stroke:none;stroke-width:1px;stroke-linecap:butt;stroke-linejoin:miter;stroke-miterlimit:4;stroke-dasharray:none;stroke-opacity:1"
       d="m 89.216767,973.80152 8.674847,0 c -1.927748,-16.81423 17.349666,-23.13289 17.349666,-38.87618 0,-11.67354 -7.92515,-19.06316 -20.027092,-19.06316 -8.674834,0 -15.529028,4.17677 -20.455486,9.85287 l 5.569041,5.14069 c 3.748388,-4.28393 8.460644,-6.85421 13.815482,-6.85421 7.603875,0 11.566445,5.14069 11.566445,11.56638 0,12.74463 -18.956126,19.59883 -16.492903,38.23361 z m 4.605161,25.06061 c 3.962591,0 7.175492,-2.99866 7.175492,-7.38961 0,-4.39096 -3.212901,-7.60394 -7.175492,-7.60394 -3.855484,0 -7.068384,3.21298 -7.068384,7.60394 0,4.39095 3.2129,7.38961 7.068384,7.38961 z"
       id="path4154"
       inkscape:connector-curvature="0" />
  </g>
</svg>
