<?xml version="1.0" encoding="UTF-8" standalone="no"?>
<!-- Created with Inkscape (http://www.inkscape.org/) -->

<svg
   xmlns:dc="http://purl.org/dc/elements/1.1/"
   xmlns:cc="http://creativecommons.org/ns#"
   xmlns:rdf="http://www.w3.org/1999/02/22-rdf-syntax-ns#"
   xmlns:svg="http://www.w3.org/2000/svg"
   xmlns="http://www.w3.org/2000/svg"
   xmlns:sodipodi="http://sodipodi.sourceforge.net/DTD/sodipodi-0.dtd"
   xmlns:inkscape="http://www.inkscape.org/namespaces/inkscape"
   width="85.599998mm"
   height="53.98mm"
   viewBox="0 0 303.30708 191.26771"
   id="svg2"
   version="1.1"
   inkscape:version="0.91 r13725"
   sodipodi:docname="id1_card_bg.svg">
  <defs
     id="defs4" />
  <sodipodi:namedview
     id="base"
     pagecolor="#ffffff"
     bordercolor="#666666"
     borderopacity="1.0"
     inkscape:pageopacity="0.0"
     inkscape:pageshadow="2"
     inkscape:zoom="2.8284271"
     inkscape:cx="161.80925"
     inkscape:cy="93.145931"
     inkscape:document-units="px"
     inkscape:current-layer="layer1"
     showgrid="false"
     inkscape:snap-page="true"
     inkscape:snap-bbox="true"
     inkscape:bbox-paths="true"
     inkscape:bbox-nodes="true"
     inkscape:snap-bbox-edge-midpoints="true"
     inkscape:snap-bbox-midpoints="true"
     inkscape:window-width="1920"
     inkscape:window-height="1016"
     inkscape:window-x="0"
     inkscape:window-y="27"
     inkscape:window-maximized="1" />
  <metadata
     id="metadata7">
    <rdf:RDF>
      <cc:Work
         rdf:about="">
        <dc:format>image/svg+xml</dc:format>
        <dc:type
           rdf:resource="http://purl.org/dc/dcmitype/StillImage" />
        <dc:title></dc:title>
      </cc:Work>
    </rdf:RDF>
  </metadata>
  <g
     inkscape:label="Layer 1"
     inkscape:groupmode="layer"
     id="layer1"
     transform="translate(0,-861.09449)">
    <rect
       style="opacity:1;fill:#f6f6f6;fill-opacity:1;stroke:none;stroke-width:2;stroke-linecap:butt;stroke-miterlimit:4;stroke-dasharray:none;stroke-dashoffset:0;stroke-opacity:1"
       id="rect4136"
       width="303.30707"
       height="191.26778"
       x="-1.5258789e-05"
       y="861.09448" />
    <flowRoot
       xml:space="preserve"
       id="flowRoot4138"
       style="fill:black;stroke:none;stroke-opacity:1;stroke-width:1px;stroke-linejoin:miter;stroke-linecap:butt;fill-opacity:1;font-family:sans-serif;font-style:normal;font-weight:normal;font-size:40px;line-height:125%;letter-spacing:0px;word-spacing:0px"><flowRegion
         id="flowRegion4140"><rect
           id="rect4142"
           width="138.57143"
           height="72.14286"
           x="-88.928574"
           y="15.196286" /></flowRegion><flowPara
         id="flowPara4144"></flowPara></flowRoot>    <path
       style="color:#000000;font-style:normal;font-variant:normal;font-weight:normal;font-stretch:normal;font-size:medium;line-height:normal;font-family:sans-serif;text-indent:0;text-align:start;text-decoration:none;text-decoration-line:none;text-decoration-style:solid;text-decoration-color:#000000;letter-spacing:normal;word-spacing:normal;text-transform:none;direction:ltr;block-progression:tb;writing-mode:lr-tb;baseline-shift:baseline;text-anchor:start;white-space:normal;clip-rule:nonzero;display:inline;overflow:visible;visibility:visible;opacity:1;isolation:auto;mix-blend-mode:normal;color-interpolation:sRGB;color-interpolation-filters:linearRGB;solid-color:#000000;solid-opacity:1;fill:#062c50;fill-opacity:0.15346535;fill-rule:nonzero;stroke:none;stroke-width:2.66854572;stroke-linecap:round;stroke-linejoin:round;stroke-miterlimit:4;stroke-dasharray:none;stroke-dashoffset:0;stroke-opacity:1;color-rendering:auto;image-rendering:auto;shape-rendering:auto;text-rendering:auto;enable-background:accumulate"
       d="m 240.88323,985.05741 c -1.34528,0 -2.56795,0.54625 -3.45076,1.42907 -0.88282,0.88282 -1.43029,2.10656 -1.43029,3.45198 l 0,47.54274 c 0,1.3321 0.53804,2.5428 1.40547,3.4234 a 0.42395228,0.42395228 0 0 0 0.0248,0.027 0.42395228,0.42395228 0 0 0 0.0318,0.028 c 0.88031,0.8651 2.089,1.4018 3.41911,1.4018 l 47.5427,0 c 1.3454,0 2.56855,-0.5475 3.45137,-1.4303 0.88281,-0.8828 1.42968,-2.1055 1.42968,-3.4507 l 0,-47.54276 c 0,-1.33216 -0.53804,-2.54279 -1.40547,-3.42344 a 0.42395228,0.42395228 0 0 0 -0.0248,-0.0273 0.42395228,0.42395228 0 0 0 -0.0318,-0.0285 c -0.88031,-0.8651 -2.08903,-1.40176 -3.41911,-1.40176 l -47.5427,0 z m 0,0.84764 47.5427,0 c 0.96027,0 1.80166,0.38228 2.49328,0.94071 l -2.79298,2.79298 -0.95313,0.95251 -0.0819,0.0819 c -0.84841,-0.71233 -1.93005,-1.15852 -3.1225,-1.15852 l -38.62824,0 c -1.34527,0 -2.56855,0.54625 -3.45136,1.42907 -0.88282,0.88281 -1.42969,2.10656 -1.42969,3.45197 l 0,38.62832 c 0,1.1924 0.44619,2.274 1.15852,3.1224 l -1.03443,1.0351 -2.79298,2.7929 c -0.55843,-0.6916 -0.94073,-1.5329 -0.94073,-2.4932 l 0,-47.54274 c 0,-1.11617 0.45178,-2.1216 1.1821,-2.85193 0.73035,-0.73034 1.735,-1.18148 2.85134,-1.18148 z m 50.6354,1.54014 c 0.55837,0.69164 0.9401,1.53303 0.9401,2.49327 l 0,47.54274 c 0,1.1163 -0.45051,2.121 -1.18086,2.8513 -0.73032,0.7303 -1.7358,1.1815 -2.85194,1.1815 l -47.5427,0 c -0.96024,0 -1.80166,-0.3817 -2.49328,-0.9401 l 2.79297,-2.793 1.03504,-1.035 c 0.84844,0.7122 1.93004,1.1591 3.1225,1.1591 l 38.62824,0 c 1.34543,0 2.56918,-0.5475 3.452,-1.4303 0.88281,-0.8828 1.42905,-2.1055 1.42905,-3.4507 l 0,-38.62832 c 0,-1.19242 -0.44679,-2.27405 -1.15913,-3.12247 l 1.03503,-1.03504 2.79298,-2.79298 z m -46.17817,2.91709 38.62824,0 c 1.11617,0 2.12089,0.45167 2.8513,1.18209 0.73045,0.73043 1.18213,1.73515 1.18213,2.85131 l 0,38.62832 c 0,1.1163 -0.45117,2.1209 -1.18149,2.8513 -0.73035,0.7303 -1.73577,1.1814 -2.85194,1.1814 l -38.62824,0 c -1.11621,0 -2.12089,-0.451 -2.85134,-1.1814 -0.73041,-0.7304 -1.1821,-1.7352 -1.1821,-2.8513 l 0,-38.62832 c 0,-1.11616 0.45178,-2.12221 1.1821,-2.85255 0.73035,-0.73033 1.73497,-1.18085 2.85134,-1.18085 z m 36.15793,8.61536 0,10.05806 c 0,1.1256 0.40956,1.7685 1.40363,1.7685 0.35085,0 0.5844,-0.044 0.77442,-0.1166 l -0.18987,-1.0233 c -0.14621,0.029 -0.20488,0.029 -0.27799,0.029 -0.20467,0 -0.37979,-0.161 -0.37979,-0.5703 l 0,-10.14556 -1.3304,0 z m -10.73941,1.47686 -0.1607,2.2221 -1.2423,0.073 0,1.009 1.18397,0 0,4.4001 c 0,1.5934 0.57038,2.6459 2.26615,2.6459 0.48241,0 1.00815,-0.1461 1.46134,-0.2923 l -0.2631,-0.994 c -0.26313,0.1023 -0.6282,0.2047 -0.90597,0.2047 -0.92095,0 -1.22801,-0.5557 -1.22801,-1.5351 l 0,-4.4293 2.14885,0 0,-1.0816 -2.14885,0 0,-2.2221 -1.11138,0 z m -4.50313,2.0173 c -2.03197,0 -3.82988,1.5351 -3.82988,4.1811 0,2.6314 1.62237,4.1513 3.72748,4.1513 0.9502,0 1.85675,-0.3651 2.55844,-1.0083 l -0.57029,-0.8917 c -0.49705,0.4531 -1.13994,0.7893 -1.87085,0.7893 -1.46188,0 -2.45605,-1.2133 -2.45605,-3.0406 0,-1.8273 1.0526,-3.0704 2.48521,-3.0704 0.6432,0 1.12571,0.2928 1.5935,0.7168 l 0.68691,-0.8917 c -0.57012,-0.4971 -1.28655,-0.9358 -2.32447,-0.9358 z m 13.06947,0 c -0.89174,0 -1.69573,0.6432 -2.25125,1.6518 l -0.0441,0 -0.11727,-1.447 -1.09648,0 0,7.9377 1.33041,0 0,-5.1019 c 0.52625,-1.3595 1.34521,-1.8275 2.00306,-1.8275 0.32161,0 0.51128,0.029 0.77441,0.1316 l 0.24883,-1.1691 c -0.24851,-0.1315 -0.4968,-0.1756 -0.84765,-0.1756 z m -30.64212,16.416 0,10.7152 1.35957,0 0,-4.2537 1.76913,0 c 2.33897,0 3.94654,-1.0527 3.94654,-3.3186 0,-2.3389 -1.60773,-3.1429 -4.01978,-3.1429 l -3.05546,0 z m 16.87394,0 0,10.7152 1.22801,0 0,-5.9353 c 0,-0.921 -0.10224,-2.2217 -0.16073,-3.1572 l 0.0583,0 0.84828,2.4411 2.03219,5.5698 0.90598,0 2.03222,-5.5698 0.84764,-2.4411 0.0583,0 c -0.0731,0.9355 -0.17496,2.2362 -0.17496,3.1572 l 0,5.9353 1.27144,0 0,-10.7152 -1.63693,0 -2.04649,5.7305 c -0.24851,0.7455 -0.48247,1.4908 -0.73098,2.2364 l -0.0732,0 c -0.26316,-0.7456 -0.51164,-1.4909 -0.76015,-2.2364 l -2.06136,-5.7305 -1.63756,0 z m 11.87807,0 0,10.7152 6.34423,0 0,-1.1548 -4.98466,0 0,-3.9031 4.06381,0 0,-1.1548 -4.06381,0 0,-3.3626 4.82396,0 0,-1.1399 -6.18353,0 z m -27.39244,1.0965 1.5352,0 c 1.88579,0 2.83577,0.4969 2.83577,2.0464 0,1.535 -0.89165,2.2221 -2.77744,2.2221 l -1.59353,0 0,-4.2685 z m 6.61977,1.681 3.1864,7.9526 -0.175,0.5994 c -0.32161,0.9795 -0.89193,1.7102 -1.79829,1.7102 -0.20467,0 -0.43863,-0.073 -0.59942,-0.1316 l -0.2631,1.0673 c 0.24852,0.1023 0.55564,0.1608 0.93575,0.1608 1.57879,0 2.39695,-1.199 2.95247,-2.7632 l 2.99713,-8.5955 -1.30124,0 -1.4179,4.415 c -0.21928,0.7017 -0.45337,1.5052 -0.67265,2.2215 l -0.0726,0 c -0.24851,-0.7163 -0.52625,-1.5344 -0.76015,-2.2215 l -1.62266,-4.415 -1.38874,0 z"
       id="path4431"
       inkscape:connector-curvature="0" />
    <path
       inkscape:connector-curvature="0"
       id="path4166"
       d="m 32.248106,821.36491 c -6.10946,0 -11.66211,2.48075 -15.67131,6.48999 -4.00925,4.00925 -6.49553,9.56676 -6.49553,15.67686 l 0,215.91104 c 0,6.0496 2.44346,11.5479 6.38281,15.5471 a 1.9253411,1.9253411 0 0 0 0.11263,0.1226 1.9253411,1.9253411 0 0 0 0.14442,0.1272 c 3.99784,3.9287 9.487,6.3661 15.52758,6.3661 l 215.910884,0 c 6.11001,0 11.66483,-2.4864 15.67408,-6.4956 4.0092,-4.0091 6.49276,-9.5619 6.49276,-15.671 l 0,-215.91116 c 0,-6.04989 -2.44346,-11.54785 -6.38281,-15.54725 a 1.9253411,1.9253411 0 0 0 -0.11263,-0.12398 1.9253411,1.9253411 0 0 0 -0.14442,-0.12943 c -3.99784,-3.92877 -9.48714,-6.36597 -15.52758,-6.36597 l -215.910884,0 z m 0,3.84948 215.910884,0 c 4.36098,0 8.18208,1.73609 11.32301,4.27215 l -12.68407,12.68407 -4.32855,4.32574 -0.37194,0.37194 c -3.85298,-3.23498 -8.76515,-5.26132 -14.18055,-5.26132 l -175.426674,0 c -6.10942,0 -11.66484,2.48075 -15.67404,6.49 -4.00924,4.0092 -6.49281,9.56675 -6.49281,15.67681 l 0,175.42702 c 0,5.4152 2.02634,10.3272 5.26132,14.1801 l -4.69777,4.7008 -12.68407,12.6837 c -2.53606,-3.1408 -4.27224,-6.9615 -4.27224,-11.3226 l 0,-215.91108 c 0,-5.06899 2.05172,-9.63506 5.3684,-12.95179 3.31682,-3.31677 7.87935,-5.36558 12.9491,-5.36558 z m 229.956104,6.99441 c 2.53579,3.14102 4.26938,6.96212 4.26938,11.32296 l 0,215.91104 c 0,5.0696 -2.04595,9.6324 -5.36277,12.949 -3.31668,3.3165 -7.88298,5.3656 -12.95183,5.3656 l -215.910884,0 c -4.36084,0 -8.18207,-1.7334 -11.323,-4.2693 l 12.68402,-12.6842 4.70054,-4.7004 c 3.85311,3.2344 8.7651,5.264 14.18055,5.264 l 175.426674,0 c 6.11015,0 11.6677,-2.4864 15.67694,-6.4956 4.00921,-4.0092 6.48991,-9.5619 6.48991,-15.671 l 0,-175.42708 c 0,-5.41526 -2.02906,-10.32739 -5.26409,-14.18041 l 4.7005,-4.70054 12.68406,-12.68407 z m -209.713994,13.2477 175.426674,0 c 5.06898,0 9.63183,2.05122 12.94892,5.36836 3.31727,3.31718 5.36854,7.88002 5.36854,12.94896 l 0,175.42708 c 0,5.0695 -2.04895,9.6318 -5.36564,12.9489 -3.31681,3.3166 -7.88284,5.3652 -12.95182,5.3652 l -175.426674,0 c -5.06916,0 -9.63183,-2.0482 -12.9491,-5.3652 -3.31709,-3.3171 -5.3684,-7.8803 -5.3684,-12.9489 l 0,-175.42708 c 0,-5.06894 2.05172,-9.63782 5.3684,-12.95459 3.31682,-3.31673 7.87921,-5.36273 12.9491,-5.36273 z m 164.207984,39.12588 0,45.67778 c 0,5.11181 1.85998,8.03144 6.37446,8.03144 1.59335,0 2.654,-0.1998 3.51695,-0.52949 l -0.86227,-4.64722 c -0.664,0.1317 -0.93045,0.1317 -1.26247,0.1317 -0.92949,0 -1.72478,-0.73117 -1.72478,-2.58997 l 0,-46.07515 -6.04189,0 z m -48.77207,6.70703 -0.7298,10.09147 -5.6418,0.33152 0,4.58228 5.3769,0 0,19.98266 c 0,7.23628 2.59033,12.01616 10.29151,12.01616 2.19083,0 4.57843,-0.66354 6.63655,-1.3275 l -1.19485,-4.51416 c -1.19498,0.46459 -2.85291,0.92963 -4.11438,0.92963 -4.18241,0 -5.5769,-2.52366 -5.5769,-6.97152 l 0,-20.11527 9.75881,0 0,-4.91199 -9.75881,0 0,-10.09146 -5.04723,0 z m -20.45056,9.16139 c -9.22801,0 -17.39305,6.97151 -17.39305,18.98808 0,11.95027 7.36785,18.85272 16.92801,18.85272 4.31525,0 8.43227,-1.65803 11.61893,-4.57906 l -2.58992,-4.04958 c -2.25731,2.05771 -5.17694,3.58454 -8.4963,3.58454 -6.639,0 -11.15393,-5.5101 -11.15393,-13.80862 0,-8.29851 4.78029,-13.94394 11.28636,-13.94394 2.92103,0 5.11231,1.32972 7.23673,3.25528 l 3.11954,-4.04957 c -2.58914,-2.25754 -5.84275,-4.24985 -10.55637,-4.24985 z m 59.35382,0 c -4.04975,0 -7.701,2.92103 -10.22384,7.5015 l -0.20028,0 -0.53257,-6.57142 -4.97957,0 0,36.04835 6.04194,0 0,-23.16982 c 2.38992,-6.17405 6.10915,-8.29943 9.09672,-8.29943 1.46056,0 2.32193,0.1317 3.51691,0.59765 l 1.13004,-5.30936 c -1.12859,-0.5972 -2.25617,-0.79747 -3.84953,-0.79747 z m -139.158414,74.5518 0,48.6621 6.17436,0 0,-19.3178 8.03435,0 c 10.622218,0 17.922848,-4.78074 17.922848,-15.07114 0,-10.6219 -7.30136,-14.27316 -18.255468,-14.27316 l -13.87609,0 z m 76.631464,0 0,48.6621 5.5769,0 0,-26.95464 c 0,-4.1827 -0.46431,-10.0897 -0.72994,-14.3382 l 0.26476,0 3.85239,11.0861 9.22901,25.29474 4.11443,0 9.22914,-25.29474 3.84948,-11.0861 0.26477,0 c -0.33198,4.2485 -0.79457,10.1555 -0.79457,14.3382 l 0,26.95464 5.77413,0 0,-48.6621 -7.43397,0 -9.29395,26.0245 c -1.12859,3.3857 -2.19109,6.7704 -3.31968,10.1564 l -0.33243,0 c -1.19512,-3.386 -2.32357,-6.7707 -3.45215,-10.1564 l -9.36148,-26.0245 -7.43684,0 z m 53.94319,0 0,48.6621 28.81175,0 0,-5.2444 -22.63739,0 0,-17.7256 18.45543,0 0,-5.24444 -18.45543,0 0,-15.271 21.90758,0 0,-5.17666 -28.08194,0 z m -124.400294,4.97956 6.97197,0 c 8.564148,0 12.878398,2.2567 12.878398,9.2936 0,6.971 -4.04935,10.0914 -12.613498,10.0914 l -7.23687,0 0,-19.385 z m 30.063084,7.6341 14.47075,36.11614 -0.79475,2.7221 c -1.46056,4.4483 -4.05062,7.7667 -8.16677,7.7667 -0.92949,0 -1.992,-0.3315 -2.72221,-0.5976 l -1.19485,4.847 c 1.12863,0.4646 2.52339,0.7303 4.24963,0.7303 7.16993,0 10.88553,-5.4452 13.40837,-12.5489 l 13.6112,-39.03574 -5.90946,0 -6.43927,20.05044 c -0.99584,3.1867 -2.05894,6.8357 -3.05478,10.0887 l -0.32971,0 c -1.12858,-3.253 -2.38991,-6.9683 -3.45215,-10.0887 l -7.36916,-20.05044 -6.30684,0 z"
       style="color:#000000;font-style:normal;font-variant:normal;font-weight:normal;font-stretch:normal;font-size:medium;line-height:normal;font-family:sans-serif;text-indent:0;text-align:start;text-decoration:none;text-decoration-line:none;text-decoration-style:solid;text-decoration-color:#000000;letter-spacing:normal;word-spacing:normal;text-transform:none;direction:ltr;block-progression:tb;writing-mode:lr-tb;baseline-shift:baseline;text-anchor:start;white-space:normal;clip-rule:nonzero;display:inline;overflow:visible;visibility:visible;opacity:1;isolation:auto;mix-blend-mode:normal;color-interpolation:sRGB;color-interpolation-filters:linearRGB;solid-color:#000000;solid-opacity:1;fill:#062c50;fill-opacity:0.02970297;fill-rule:nonzero;stroke:none;stroke-width:2.66854572;stroke-linecap:round;stroke-linejoin:round;stroke-miterlimit:4;stroke-dasharray:none;stroke-dashoffset:0;stroke-opacity:1;color-rendering:auto;image-rendering:auto;shape-rendering:auto;text-rendering:auto;enable-background:accumulate" />
  </g>
</svg>
